<svg xmlns="http://www.w3.org/2000/svg" width="53.484" height="55" viewBox="0 0 53.484 55"><defs><style>.a{fill:#12406f;}</style></defs><g transform="translate(-6.409)"><g transform="translate(6.409)"><g transform="translate(0)"><path class="a" d="M52.55,25.15h0V11.278a6.036,6.036,0,0,0-6-6.02h-.747v-.94a4.259,4.259,0,1,0-8.518,0v.94H21.671v-.94a4.318,4.318,0,0,0-8.637,0v.94h-.645a6.022,6.022,0,0,0-5.98,6.02V43.13a6.023,6.023,0,0,0,5.98,6.021H31.152a16.255,16.255,0,1,0,21.4-24ZM39.654,4.318a1.866,1.866,0,0,1,1.833-1.9h.05a1.884,1.884,0,0,1,1.9,1.864q0,.018,0,.035V8.926H39.654Zm-24.253,0a1.92,1.92,0,0,1,1.94-1.9h.005a1.931,1.931,0,0,1,1.959,1.9V8.926H15.4Zm-6.625,6.96a3.653,3.653,0,0,1,3.614-3.654h.645v2.534a1.156,1.156,0,0,0,1.2,1.134h6.225a1.167,1.167,0,0,0,1.212-1.134V7.625H37.288v2.534a1.1,1.1,0,0,0,1.07,1.134h6.291a1.12,1.12,0,0,0,1.157-1.082c0-.017,0-.035,0-.052V7.625h.747a3.668,3.668,0,0,1,3.631,3.654v3.8H8.775Zm3.614,35.507A3.654,3.654,0,0,1,8.775,43.13V17.444H50.183v6.419a16.269,16.269,0,0,0-20.67,22.922Zm31.252,5.828A13.877,13.877,0,1,1,57.518,38.736h0A13.892,13.892,0,0,1,43.641,52.613Z" transform="translate(-6.409)"/></g></g><g transform="translate(41.665 30.438)"><g transform="translate(0)"><path class="a" d="M311.958,265.58h-5.183v-7.119a1.183,1.183,0,1,0-2.366,0v8.3a1.2,1.2,0,0,0,1.205,1.184h6.344a1.183,1.183,0,0,0,0-2.366Z" transform="translate(-304.409 -257.278)"/></g></g></g></svg>