<svg xmlns="http://www.w3.org/2000/svg" xmlns:xlink="http://www.w3.org/1999/xlink" width="1920" height="380.479" viewBox="0 0 1920 380.479"><defs><style>.a{fill:url(#a);}.b{opacity:0.18;}.c{fill:#c8d7d6;}.c,.d{mix-blend-mode:soft-light;isolation:isolate;}.d{fill:#f8e1c5;opacity:0.4;}.e{opacity:0.3;}</style><linearGradient id="a" x1="1" y1="0.375" x2="0" y2="0.427" gradientUnits="objectBoundingBox"><stop offset="0" stop-color="#12406f"/><stop offset="1" stop-color="#003164"/></linearGradient></defs><g transform="translate(0 -2058)"><rect class="a" width="1920" height="380" transform="translate(0 2058)"/><g class="b" transform="translate(1662.208 2058.325)"><path class="c" d="M261.742,901.744V916.03l-130.387,77.8V901.744Z" transform="translate(-4.099 -901.744)"/><path class="c" d="M220.539,853.177l41.2,24.592v145.282L131.354,945.26V853.177Z" transform="translate(-4.099 -853.177)"/><path class="d" d="M356.885,824.322V937.683L184.719,1040.415V895.122l118.649-70.8Z" transform="translate(-184.719 -824.322)"/><path class="c" d="M147.566,868.848l139.383-83.167V930.963L147.566,1014.14Z" transform="translate(-55.273 -736.154)"/><path class="c" d="M244.587,926.342,131.354,858.763l135.224-80.685V926.342Z" transform="translate(-8.936 -636.179)"/><path class="c" d="M368.22,784.872v279.282L131.354,922.813,362.526,784.872Z" transform="translate(-110.577 -784.872)"/></g><g class="b" transform="translate(0 -331.799)"><path class="c" d="M131.354,979.48v-12.06l110.072-65.676V979.48Z" transform="translate(-131.354 1790.799)"/><path class="c" d="M166.138,996.584l-34.783-20.761V853.177l110.072,65.67v77.736Z" transform="translate(-131.354 1773.695)"/><path class="d" d="M184.719,1006.746v-95.7L330.06,824.322V946.977L229.9,1006.746Z" transform="translate(-112.56 1763.533)"/><path class="c" d="M265.232,908.335,147.566,978.544V855.9l117.666-70.217Z" transform="translate(-125.645 1749.924)"/><path class="c" d="M149.919,778.079l95.59,57.049L131.354,903.241V778.079Z" transform="translate(-131.354 1747.247)"/><path class="c" d="M131.354,1020.64V784.872l199.96,119.319L136.161,1020.64Z" transform="translate(-131.354 1749.639)"/></g><g class="e" transform="translate(1623.025 4789.444) rotate(180)"><g transform="translate(-59.074)"><path class="d" d="M653.589,778.079l-187.678,112-187.691-112Z" transform="translate(102.645 1573.246)"/><path class="c" d="M505.82,778.079,439.152,817.86l-66.661-39.781Z" transform="translate(129.402 1573.246)"/></g></g></g></svg>